<svg xmlns="http://www.w3.org/2000/svg" xmlns:xlink="http://www.w3.org/1999/xlink" viewBox="0 0 553.74 189.67"><defs><style>.e82603d2-91b7-472c-8425-ddc6f0351fb0{fill:#fff;}.a92c0cca-c904-45d0-b561-be7879c206a9{fill:url(#e4136466-d85c-4dc6-ac1c-b2b2d9823e54);}.afa6a3a6-9446-4913-a9c0-a034b82f0cb5{fill:#2d2d2d;}</style><linearGradient id="e4136466-d85c-4dc6-ac1c-b2b2d9823e54" x1="94.84" y1="189.67" x2="94.84" gradientUnits="userSpaceOnUse"><stop offset="0" stop-color="#1548b2"/><stop offset="1" stop-color="#1d6fec"/></linearGradient></defs><g id="a9a6f093-dd81-4281-89b6-5e3c381a1cd4" data-name="图层 1"><path class="e82603d2-91b7-472c-8425-ddc6f0351fb0" d="M185.74,35.2V153.79a31.7,31.7,0,0,1-31.7,31.7H35.45a31.71,31.71,0,0,1-31.71-31.7V35.2A31.71,31.71,0,0,1,35.45,3.49H154A31.71,31.71,0,0,1,185.74,35.2Z"/><path class="a92c0cca-c904-45d0-b561-be7879c206a9" d="M189.67,33V156.63a33,33,0,0,1-33,33H33a33,33,0,0,1-33-33V33A33,33,0,0,1,33,0H156.63A33,33,0,0,1,189.67,33ZM84.2,33.51A10.74,10.74,0,1,0,96,21.73,10.77,10.77,0,0,0,84.2,33.51Zm21.36,121.91A10.74,10.74,0,1,0,93.78,167.2,10.76,10.76,0,0,0,105.56,155.42ZM161.2,73.7V53.17a9.35,9.35,0,0,1,4.25-7.81,15.51,15.51,0,1,0-17,0,9.32,9.32,0,0,1,4.24,7.79V73.7a9.35,9.35,0,0,1-4.26,7.81,15.5,15.5,0,0,0,0,25.91,9.35,9.35,0,0,1,4.26,7.8v24.49a2.69,2.69,0,0,1-1.66,2.48h0a2.7,2.7,0,0,1-2.92-.58l-35.48-35.48a9.24,9.24,0,0,1-2.53-8.44,15.69,15.69,0,0,0,.34-3.24,15.51,15.51,0,1,0-30.67,3.33,9.12,9.12,0,0,1-2.56,8.36L41.49,141.81a2.29,2.29,0,0,1-2.54.46l-.06,0a2.29,2.29,0,0,1-1.41-2.09V115a9.36,9.36,0,0,1,4.1-7.71,15.5,15.5,0,0,0-.24-25.76,9.36,9.36,0,0,1-4.25-7.81V53.17a9.38,9.38,0,0,1,4.25-7.81A15.5,15.5,0,0,0,32,16.92a15.51,15.51,0,0,0-7.66,28.46,9.3,9.3,0,0,1,4.24,7.79V73.7a9.36,9.36,0,0,1-4.25,7.81,15.48,15.48,0,0,0,.23,26.05A9.38,9.38,0,0,1,29,115.47v20a9.37,9.37,0,0,1-4.41,7.91A15.51,15.51,0,1,0,48,153.2a8.62,8.62,0,0,1,2.22-8l34.86-34.87a4.72,4.72,0,0,1,4.84-1.15,15.5,15.5,0,0,0,9.95,0,4.74,4.74,0,0,1,4.85,1.15l34.74,34.75a8.52,8.52,0,0,1,2.38,7.93,15.72,15.72,0,0,0-.4,3.53,15.51,15.51,0,1,0,24-13,9.31,9.31,0,0,1-4.23-7.79V115.22a9.34,9.34,0,0,1,4.25-7.8,15.5,15.5,0,0,0,0-25.91A9.34,9.34,0,0,1,161.2,73.7Z"/><path class="afa6a3a6-9446-4913-a9c0-a034b82f0cb5" d="M238.93,39.27h22.68l8.86,54.22c1.65,11.71,3.45,23.58,5.11,35.44h.6c2.25-11.86,4.65-23.88,7.06-35.44l12.91-54.22h18.93L328,93.49c2.41,11.41,4.66,23.42,7.06,35.44h.75c1.65-12,3.31-23.88,5-35.44l8.71-54.22h21.18L350.07,150.41H322.44L310,95.44c-1.8-8.71-3.45-17.27-4.81-25.68h-.6c-1.5,8.41-3,17-4.8,25.68l-12.17,55H260.41Z"/><path class="afa6a3a6-9446-4913-a9c0-a034b82f0cb5" d="M387.33,39.27h68.18V57.74H409.56V83.42h39v18.63h-39v29.73h47.61v18.63H387.33Z"/><path class="afa6a3a6-9446-4913-a9c0-a034b82f0cb5" d="M472.34,136.29,485.11,121c8,7.36,18.47,12.32,28.23,12.32,11.57,0,17.73-5,17.73-12.77,0-8.26-6.76-10.81-16.68-15l-14.86-6.31C488.26,94.54,477,85.53,477,69.31c0-18.18,15.92-32.15,38.44-32.15a49.34,49.34,0,0,1,34.85,14.27L539,65.4c-7-5.86-14.41-9.16-23.58-9.16-9.76,0-16.06,4.35-16.06,11.71,0,8,7.95,10.82,17.42,14.57l14.57,6.16c13.51,5.56,22.37,14.12,22.37,30.19,0,18.17-15.17,33.64-40.85,33.64A59.23,59.23,0,0,1,472.34,136.29Z"/></g></svg>